# Blender v2.76 (sub 0) OBJ File: ''
# www.blender.org
mtllib cuboctahedron.mtl
o Mesh1_Model.001
v -0.028479 2.500000 -2.490830
v -2.528480 0.000000 -2.490830
v -2.528480 2.500000 0.009170
v 2.471520 0.000000 -2.490830
v -0.028479 -2.500000 -2.490831
v 2.471520 2.500000 0.009170
v -0.028479 2.500000 2.509171
v 2.471520 -0.000000 2.509170
v 2.471520 -2.500000 0.009169
v -2.528480 -0.000000 2.509170
v -0.028479 -2.500000 2.509170
v -2.528480 -2.500000 0.009169
vt -13.709800 7.974310
vt 0.209619 -16.134800
vt 14.129000 7.974310
vt 0.224245 19.684999
vt -19.460800 -0.000000
vt 0.224245 -19.684999
vt 19.909300 -0.000000
vt 14.026900 8.157410
vt -13.811900 8.157410
vt 0.107512 -15.951700
vt 19.460800 -0.072200
vt -0.224245 19.612801
vt -19.909300 -0.072200
vt -0.224245 -19.757200
vt -13.811900 24.230200
vt -27.731300 0.121023
vt -13.811900 -23.988100
vt 14.026900 -23.988100
vt 27.946400 0.121023
vt 14.026900 24.230200
vt 19.460800 -0.000000
vt -0.224245 19.684999
vt -19.909300 -0.000000
vt -0.224245 -19.684999
vt 13.709800 8.098460
vt -14.129000 8.098460
vt -0.209619 -16.010700
vt -19.757200 -0.000000
vt -0.072200 -19.684999
vt 19.612801 -0.000000
vt -0.072200 19.684999
vt -0.209619 16.010700
vt -14.129000 -8.098460
vt 13.709800 -8.098460
vt 0.224245 19.612801
vt -19.460800 -0.072200
vt 0.224245 -19.757200
vt 19.909300 -0.072200
vt 0.107512 15.951700
vt -13.811900 -8.157410
vt 14.026900 -8.157410
vt -14.026900 -7.915360
vt 13.811900 -7.915360
vt -0.107512 16.193800
vt -19.612801 -0.000000
vt 0.072200 -19.684999
vt 19.757200 -0.000000
vt 0.072200 19.684999
vt 0.209619 16.134800
vt -13.709800 -7.974310
vt 14.129000 -7.974310
vt -0.107512 -16.193800
vt 13.811900 7.915360
vt -14.026900 7.915360
vn -0.577400 0.577400 -0.577400
vn 0.000000 0.000000 -1.000000
vn 0.577400 0.577400 -0.577400
vn 0.000000 1.000000 0.000000
vn -0.000000 -0.000000 1.000000
vn 0.577400 0.577400 0.577400
vn 1.000000 0.000000 0.000000
vn 0.577400 -0.577400 0.577400
vn 0.000000 -1.000000 -0.000000
vn 0.577400 -0.577400 -0.577400
vn -0.577400 -0.577400 0.577400
vn -1.000000 0.000000 0.000000
vn -0.577400 -0.577400 -0.577400
vn -0.577400 0.577400 0.577400
usemtl _1.001
s off
f 1/1/1 2/2/1 3/3/1
f 1/4/2 4/5/2 5/6/2 2/7/2
f 1/8/3 6/9/3 4/10/3
f 6/11/4 1/12/4 3/13/4 7/14/4
f 7/15/3 8/16/3 9/17/3 5/18/3 2/19/3 3/20/3
f 8/21/5 7/22/5 10/23/5 11/24/5
f 6/25/6 7/26/6 8/27/6
f 8/28/7 9/29/7 4/30/7 6/31/7
f 8/32/8 11/33/8 9/34/8
f 5/35/9 9/36/9 11/37/9 12/38/9
f 4/39/10 9/40/10 5/41/10
f 12/42/11 11/43/11 10/44/11
f 2/45/12 12/46/12 10/47/12 3/48/12
f 2/49/13 5/50/13 12/51/13
f 10/52/14 7/53/14 3/54/14
